<svg xmlns="http://www.w3.org/2000/svg" data-name="Layer 1" viewBox="0 0 100 100" x="0px" y="0px"><title>certified</title><path d="M61.59,38.08,45.17,52.7l-6.42-7.16a4.28,4.28,0,0,0-6.37,5.71L44.49,64.76l22.78-20.3a4.28,4.28,0,0,0-5.69-6.39Z"></path><path d="M92.55,36.17c-1.54-4.73,0-11-2.9-15s-9.38-4.49-13.36-7.38S69.87,4.92,65.15,3.39C60.58,1.91,55.06,5.28,50,5.28S39.42,1.91,34.85,3.39C30.13,4.92,27.65,11,23.71,13.81S13.25,17.22,10.36,21.2,9,31.45,7.45,36.17C6,40.74,1,44.94,1,50s5,9.26,6.45,13.83c1.54,4.73,0,11,2.9,15s9.38,4.49,13.36,7.38,6.41,8.89,11.14,10.43c4.56,1.48,10.09-1.89,15.15-1.89s10.58,3.37,15.15,1.89c4.73-1.54,7.21-7.56,11.14-10.43s10.46-3.41,13.36-7.38,1.37-10.25,2.9-15C94,59.26,99,55.06,99,50S94,40.74,92.55,36.17ZM50,81.18A31.18,31.18,0,1,1,81.18,50,31.18,31.18,0,0,1,50,81.18Z"></path></svg>