<svg xmlns="http://www.w3.org/2000/svg" xmlns:xlink="http://www.w3.org/1999/xlink" version="1.1" x="0px" y="0px" viewBox="0 0 24 24" enable-background="new 0 0 24 24" xml:space="preserve"><path d="M19.379,3.202h-3.976V1.474c0-0.285-0.23-0.515-0.515-0.515H8.573c-0.284,0-0.515,0.23-0.515,0.515v1.728H4.083  c-0.569,0-1.029,0.46-1.029,1.029c0,0.568,0.46,1.029,1.029,1.029h0.483v16.196c0,0.916,0.746,1.663,1.663,1.663h11.004  c0.918,0,1.663-0.747,1.663-1.663V5.259h0.483c0.569,0,1.029-0.461,1.029-1.029C20.408,3.662,19.948,3.202,19.379,3.202z   M10.463,17.148c0,0.569-0.46,1.029-1.029,1.029c-0.568,0-1.029-0.46-1.029-1.029V9.685c0-0.568,0.46-1.029,1.029-1.029  c0.569,0,1.029,0.461,1.029,1.029V17.148z M15.057,17.148c0,0.569-0.46,1.029-1.029,1.029c-0.568,0-1.028-0.46-1.028-1.029V9.685  c0-0.568,0.46-1.029,1.028-1.029c0.569,0,1.029,0.461,1.029,1.029V17.148z"></path></svg>