<svg xmlns="http://www.w3.org/2000/svg" xmlns:xlink="http://www.w3.org/1999/xlink" version="1.1" x="0px" y="0px" viewBox="0 0 1024 1024" style="enable-background:new 0 0 1024 1024;" xml:space="preserve"><g><g><g><path d="M833,631.8c0,38.7,0,77.4,0,116.1c0,8.2,0.1,16.3-0.9,24.5c0.7-5.3,1.4-10.6,2.1-16     c-1.3,8.9-3.7,17.6-7.2,25.9c2-4.8,4-9.6,6-14.3c-3.5,8.1-8,15.6-13.4,22.6c3.1-4,6.3-8.1,9.4-12.1c-5.2,6.5-11,12.4-17.6,17.6     c4-3.1,8.1-6.3,12.1-9.4c-7,5.4-14.5,9.9-22.6,13.4c4.8-2,9.6-4,14.3-6c-8.3,3.5-17,5.9-25.9,7.2c5.3-0.7,10.6-1.4,16-2.1     c-8.7,1.1-17.4,0.9-26.2,0.9c-13.2,0-26.5,0-39.7,0c-45.2,0-90.4,0-135.6,0c-55.2,0-110.4,0-165.6,0c-47.2,0-94.4,0-141.6,0     c-21.6,0-43.2,0.1-64.8,0c-4.7,0-9.5-0.3-14.2-0.9c5.3,0.7,10.6,1.4,16,2.1c-8.9-1.3-17.6-3.7-25.9-7.2c4.8,2,9.6,4,14.3,6     c-8.1-3.5-15.6-8-22.6-13.4c4,3.1,8.1,6.3,12.1,9.4c-6.5-5.2-12.4-11-17.6-17.6c3.1,4,6.3,8.1,9.4,12.1     c-5.4-7-9.9-14.5-13.4-22.6c2,4.8,4,9.6,6,14.3c-3.5-8.3-5.9-17-7.2-25.9c0.7,5.3,1.4,10.6,2.1,16c-2.2-16.7-0.9-34.3-0.9-51.1     c0-24.1,0-48.3,0-72.4c0-5.7,0-11.4,0-17.1c0-15.4-6.7-31.5-17.6-42.4c-10.4-10.4-27.5-18.2-42.4-17.6     c-15.5,0.7-31.6,5.8-42.4,17.6c-10.8,11.7-17.6,26.2-17.6,42.4c0,35.8,0,71.6,0,107.5c0,22.7,0.1,45.7,7.4,67.5     c8.2,24.3,20.7,45.9,38.5,64.5c17.9,18.6,39.2,30.5,62.9,39.7c26,10.1,54,9,81.3,9c32.7,0,65.5,0,98.2,0c45.2,0,90.4,0,135.6,0     c46.6,0,93.1,0,139.7,0c36.9,0,73.7,0,110.6,0c15.7,0,31.4,0.1,47.1,0c18.1-0.1,37.1-2.8,54-9.5c23.7-9.4,45.4-21.7,63-40.6     C937,839,952.9,799.3,953,757.1c0-38,0-76,0-114c0-3.7,0-7.5,0-11.2c0-15.4-6.7-31.5-17.6-42.4C925,579,907.9,571.2,893,571.8     c-15.5,0.7-31.6,5.8-42.4,17.6C839.8,601.2,833,615.6,833,631.8L833,631.8z"></path></g></g><g><g><g><path d="M451.6,165c0,16.4,0,32.7,0,49.1c0,39.1,0,78.2,0,117.4c0,47.5,0,94.9,0,142.4c0,40.9,0,81.8,0,122.7      c0,19.9-0.2,39.8,0,59.7c0,0.3,0,0.6,0,0.9c0,15.4,6.7,31.5,17.6,42.4c10.4,10.4,27.5,18.2,42.4,17.6      c15.5-0.7,31.6-5.8,42.4-17.6c10.8-11.7,17.6-26.2,17.6-42.4c0-16.4,0-32.7,0-49.1c0-39.1,0-78.2,0-117.4c0-47.5,0-94.9,0-142.4      c0-40.9,0-81.8,0-122.7c0-19.9,0.2-39.8,0-59.7c0-0.3,0-0.6,0-0.9c0-15.4-6.7-31.5-17.6-42.4c-10.4-10.4-27.5-18.2-42.4-17.6      c-15.5,0.7-31.6,5.8-42.4,17.6C458.4,134.3,451.6,148.7,451.6,165L451.6,165z"></path></g></g><g><g><path d="M554,699.5c19.3-19.3,38.5-38.5,57.8-57.8c30.7-30.7,61.4-61.4,92.2-92.2c7.1-7.1,14.1-14.1,21.2-21.2      c10.9-10.9,17.6-27,17.6-42.4c0-14.7-6.5-32.3-17.6-42.4c-11.4-10.5-26.4-18.3-42.4-17.6c-15.9,0.7-30.9,6.1-42.4,17.6      c-19.3,19.3-38.5,38.5-57.8,57.8c-30.7,30.7-61.4,61.4-92.2,92.2c-7.1,7.1-14.1,14.1-21.2,21.2c-10.9,10.9-17.6,27-17.6,42.4      c0,14.7,6.5,32.3,17.6,42.4c11.4,10.5,26.4,18.3,42.4,17.6C527.5,716.4,542.5,711,554,699.5L554,699.5z"></path></g></g><g><g><path d="M554,614.7c-19.3-19.3-38.5-38.5-57.8-57.8c-30.7-30.7-61.4-61.4-92.2-92.2      c-7.1-7.1-14.1-14.1-21.2-21.2c-10.9-10.9-27-17.6-42.4-17.6c-14.7,0-32.3,6.5-42.4,17.6c-10.5,11.4-18.3,26.4-17.6,42.4      c0.7,15.9,6.1,30.9,17.6,42.4c19.3,19.3,38.5,38.5,57.8,57.8c30.7,30.7,61.4,61.4,92.2,92.2c7.1,7.1,14.1,14.1,21.2,21.2      c10.9,10.9,27,17.6,42.4,17.6c14.7,0,32.3-6.5,42.4-17.6c10.5-11.4,18.3-26.4,17.6-42.4C570.9,641.2,565.5,626.1,554,614.7      L554,614.7z"></path></g></g></g></g></svg>