<svg xmlns:dc="http://purl.org/dc/elements/1.1/" xmlns:cc="http://creativecommons.org/ns#" xmlns:rdf="http://www.w3.org/1999/02/22-rdf-syntax-ns#" xmlns:svg="http://www.w3.org/2000/svg" xmlns="http://www.w3.org/2000/svg" xmlns:sodipodi="http://sodipodi.sourceforge.net/DTD/sodipodi-0.dtd" xmlns:inkscape="http://www.inkscape.org/namespaces/inkscape" version="1.1" x="0px" y="0px" viewBox="0 0 100 100"><g transform="translate(0,-952.36218)"><path d="m 7.7927283,958.86217 c -1.1965829,0.10274 -2.0943088,1.49196 -1.6976011,2.62701 l 0,68.58012 c 0.00592,0.8105 0.5625616,1.5884 1.3272154,1.8544 l 39.5078084,13.8459 c 1.180572,0.4103 2.614488,-0.6032 2.623564,-1.8544 l 0,-11.8679 15.803124,0 c 1.034285,-10e-5 1.975292,-0.9424 1.975391,-1.978 l 0,-27.6916 c 0.0241,-1.1222 -1.077339,-2.1318 -2.191449,-2.009 -0.970658,0.1069 -1.78033,1.0314 -1.759332,2.009 l 0,25.7137 -13.827734,0 0,-47.47151 c 0.01077,-0.7352 -0.425558,-1.4593 -1.080291,-1.7925 l -31.976632,-16.00926 46.884657,0 0,25.71376 c -0.01471,1.0449 0.931663,2.0088 1.97539,2.0088 1.043727,0 1.990147,-0.9639 1.975391,-2.0088 l 0,-27.69174 c -9.9e-5,-1.03564 -0.941106,-1.97787 -1.975391,-1.97798 z m 66.4842327,28.43342 10.463396,6.1811 -32.223556,0 c -0.06173,0 -0.12351,0 -0.185193,0 -0.985601,0.051 -1.838673,1.035 -1.790197,2.0707 0.0485,1.0357 0.989789,1.9363 1.97539,1.8854 l 32.347018,0 -10.586858,6.24291 c -0.783656,0.5686 -1.042324,1.7585 -0.555578,2.5962 0.486756,0.8376 1.650429,1.2053 2.530969,0.8034 l 16.759953,-9.64251 c 0.718726,-0.4527 0.871839,-1.3233 0.987695,-1.978 -0.103422,-0.7816 -0.608539,-1.4946 -0.987695,-1.9781 l -16.759953,-9.5807 c -2.353145,-0.3248 -3.053529,2.1513 -1.975391,3.3996 z" style="text-indent:0;text-transform:none;direction:ltr;block-progression:tb;baseline-shift:baseline;color:#000000;enable-background:accumulate;" fill="#000000" fill-opacity="1" stroke="none" marker="none" visibility="visible" display="inline" overflow="visible"></path></g></svg>